<svg height="40px" viewBox="0 -30 494.99861 494" width="40px" xmlns="http://www.w3.org/2000/svg" xmlns:xlink="http://www.w3.org/1999/xlink"><linearGradient id="lg1"><stop offset="0" stop-color="#003f8a"/><stop offset=".518" stop-color="#00d7df"/><stop offset="1" stop-color="#006df0"/></linearGradient><linearGradient id="linear0" gradientUnits="userSpaceOnUse" x1="19.88661" x2="538.52661" xlink:href="#lg1" y1="474.69828" y2="-43.94172"/><linearGradient id="linear1" gradientUnits="userSpaceOnUse" x1="25.52661" x2="544.15861" xlink:href="#lg1" y1="480.33028" y2="-38.30972"/><linearGradient id="linear2" gradientUnits="userSpaceOnUse" x1="163.52661" x2="682.16661" xlink:href="#lg1" y1="618.33028" y2="99.69028"/><linearGradient id="linear3" gradientUnits="userSpaceOnUse" x1="203.52661" x2="722.16661" xlink:href="#lg1" y1="658.33028" y2="139.69028"/><path d="m487 114.859375h-344.089844l341.410156-42.875c4.382813-.550781 7.484376-4.550781 6.933594-8.933594l-6.976562-55.558593c-.257813-2.109376-1.351563-4.023438-3.03125-5.320313-1.671875-1.308594-3.800782-1.886719-5.902344-1.601563l-468.34375 58.785157c-4.382812.550781-7.488281 4.550781-6.9375 8.933593l6.9375 55.066407v303.503906c0 4.417969 3.582031 8 8 8h472c4.417969 0 8-3.582031 8-8v-304c0-4.417969-3.582031-8-8-8zm-8 56h-36.6875l34.34375-34.34375c1.5-1.5 2.34375-3.535156 2.34375-5.65625zm-19.3125-40-34.34375 34.34375c-1.5 1.5-2.34375 3.535156-2.34375 5.65625h-60.6875l34.34375-34.34375c1.5-1.5 2.34375-3.535156 2.34375-5.65625zm-80 0-34.34375 34.34375c-1.5 1.5-2.34375 3.535156-2.34375 5.65625h-60.6875l34.34375-34.34375c1.5-1.5 2.34375-3.535156 2.34375-5.65625zm-80 0-34.34375 34.34375c-1.5 1.5-2.34375 3.535156-2.34375 5.65625h-60.6875l34.34375-34.34375c1.5-1.5 2.34375-3.535156 2.34375-5.65625zm-80 0-34.34375 34.34375c-1.5 1.5-2.34375 3.535156-2.34375 5.65625h-60.6875l34.34375-34.34375c1.5-1.5 2.34375-3.535156 2.34375-5.65625zm197.175781-101.144531 38.398438 29.792968-60.222657 7.566407c-.265624-2.105469-1.355468-4.019531-3.03125-5.320313l-38.386718-29.800781 60.210937-7.558594c.265625 2.105469 1.355469 4.019531 3.03125 5.320313zm-79.367187 9.945312 38.351562 29.796875-60.21875 7.5625c-.261718-2.105469-1.355468-4.019531-3.03125-5.320312l-38.351562-29.800781 60.207031-7.558594c.261719 2.105468 1.359375 4.023437 3.042969 5.320312zm-79.378906 9.988282 38.351562 29.800781-60.214844 7.5625c-.257812-2.109375-1.351562-4.023438-3.03125-5.320313l-38.351562-29.792968 60.214844-7.566407c.261718 2.105469 1.351562 4.019531 3.03125 5.316407zm-79.375 10.011718 38.351562 29.796875-60.207031 7.5625c-.265625-2.109375-1.359375-4.023437-3.039063-5.320312l-38.351562-29.792969 60.214844-7.566406c.265624 2.105468 1.355468 4.015625 3.03125 5.320312zm-79.375 9.964844 38.351562 29.800781-60.207031 7.558594c-.265625-2.101563-1.355469-4.015625-3.03125-5.316406l-38.402344-29.792969 60.214844-7.570312c.285156 2.097656 1.390625 3.996093 3.074219 5.28125zm-79.382813 9.929688 38.359375 29.800781-36.410156 4.566406-4.96875-39.640625c.269531 2.089844 1.355468 3.984375 3.019531 5.273438zm3.015625 51.304687h36.6875l-34.34375 34.34375c-1.5 1.5-2.34375 3.535156-2.34375 5.65625zm53.65625 5.65625c1.5-1.5 2.34375-3.535156 2.34375-5.65625h60.6875l-34.34375 34.34375c-1.5 1.5-2.34375 3.535156-2.34375 5.65625h-60.6875zm397.71875-79.464844c-.277344-2.082031-1.359375-3.972656-3.015625-5.265625l-38.402344-29.800781 36.441407-4.566406zm-451.375 361.808594v-232h456v232zm0 0" fill="url(#linear0)"/><path d="m315.117188 284.003906-120-72c-2.46875-1.484375-5.546876-1.527344-8.058594-.105468-2.507813 1.417968-4.058594 4.078124-4.058594 6.960937v144c0 2.882813 1.550781 5.542969 4.058594 6.960937 2.511718 1.417969 5.589844 1.378907 8.058594-.105468l120-72c2.40625-1.445313 3.878906-4.050782 3.878906-6.855469 0-2.808594-1.472656-5.410156-3.878906-6.855469zm-116.117188 64.726563v-115.746094l96.453125 57.875zm0 0" fill="url(#linear1)"/><path d="m431 394.859375h-104c-4.417969 0-8 3.582031-8 8s3.582031 8 8 8h104c4.417969 0 8-3.582031 8-8s-3.582031-8-8-8zm0 0" fill="url(#linear2)"/><path d="m463 394.859375h-8c-4.417969 0-8 3.582031-8 8s3.582031 8 8 8h8c4.417969 0 8-3.582031 8-8s-3.582031-8-8-8zm0 0" fill="url(#linear3)"/></svg>
